<svg width="320" height="86" viewBox="0 0 320 86" fill="none" xmlns="http://www.w3.org/2000/svg">
<path d="M35.7852 32V9.38H35.8152L47.5752 26.03L46.0752 25.7L57.7752 9.38H57.8352V32H54.3552V17.27L54.5952 19.07L46.7052 30.23H46.6452L38.5752 19.07L39.1752 17.42V32H35.7852ZM67.2123 32.54C66.0523 32.54 65.0923 32.19 64.3323 31.49C63.5723 30.77 63.1723 29.85 63.1323 28.73V19.31H66.4923V27.53C66.5323 28.15 66.7123 28.66 67.0323 29.06C67.3523 29.46 67.8623 29.66 68.5623 29.66C69.2223 29.66 69.8123 29.46 70.3323 29.06C70.8523 28.64 71.2523 28.07 71.5323 27.35C71.8323 26.63 71.9823 25.82 71.9823 24.92V19.31H75.3423V32H72.3123L72.0423 29.21L72.1323 29.66C71.8723 30.2 71.5023 30.7 71.0223 31.16C70.5423 31.6 69.9723 31.94 69.3123 32.18C68.6723 32.42 67.9723 32.54 67.2123 32.54ZM83.788 32.27C82.828 32.27 81.908 32.1 81.028 31.76C80.168 31.42 79.438 30.92 78.838 30.26L80.278 28.37C80.838 28.91 81.388 29.31 81.928 29.57C82.488 29.81 83.018 29.93 83.518 29.93C83.898 29.93 84.238 29.89 84.538 29.81C84.858 29.71 85.108 29.56 85.288 29.36C85.488 29.16 85.588 28.89 85.588 28.55C85.588 28.15 85.448 27.84 85.168 27.62C84.888 27.38 84.528 27.19 84.088 27.05C83.648 26.89 83.188 26.74 82.708 26.6C81.608 26.26 80.788 25.76 80.248 25.1C79.708 24.44 79.438 23.68 79.438 22.82C79.438 22.16 79.608 21.53 79.948 20.93C80.288 20.31 80.808 19.8 81.508 19.4C82.208 19 83.088 18.8 84.148 18.8C85.108 18.8 85.938 18.91 86.638 19.13C87.358 19.33 88.028 19.68 88.648 20.18L87.358 22.19C86.998 21.85 86.568 21.59 86.068 21.41C85.588 21.21 85.148 21.1 84.748 21.08C84.388 21.06 84.068 21.11 83.788 21.23C83.508 21.33 83.278 21.48 83.098 21.68C82.938 21.88 82.858 22.11 82.858 22.37C82.838 22.77 82.968 23.09 83.248 23.33C83.548 23.57 83.928 23.76 84.388 23.9C84.848 24.04 85.308 24.19 85.768 24.35C86.388 24.53 86.938 24.78 87.418 25.1C87.898 25.42 88.268 25.81 88.528 26.27C88.808 26.71 88.948 27.26 88.948 27.92C88.948 28.68 88.758 29.4 88.378 30.08C87.998 30.74 87.428 31.27 86.668 31.67C85.908 32.07 84.948 32.27 83.788 32.27ZM98.7235 32.33C97.2235 32.33 95.9435 32.04 94.8835 31.46C93.8235 30.88 93.0135 30.08 92.4535 29.06C91.8935 28.02 91.6135 26.85 91.6135 25.55C91.6135 24.27 91.9335 23.12 92.5735 22.1C93.2135 21.08 94.0735 20.27 95.1535 19.67C96.2535 19.05 97.4635 18.74 98.7835 18.74C100.524 18.74 101.954 19.25 103.074 20.27C104.214 21.27 104.974 22.69 105.354 24.53L95.1235 27.98L94.3435 26.09L102.324 23.24L101.634 23.63C101.414 23.03 101.054 22.51 100.554 22.07C100.074 21.63 99.3935 21.41 98.5135 21.41C97.8135 21.41 97.1935 21.58 96.6535 21.92C96.1135 22.24 95.6835 22.7 95.3635 23.3C95.0635 23.88 94.9135 24.57 94.9135 25.37C94.9135 26.19 95.0835 26.91 95.4235 27.53C95.7635 28.15 96.2235 28.63 96.8035 28.97C97.3835 29.29 98.0435 29.45 98.7835 29.45C99.3035 29.45 99.8035 29.36 100.284 29.18C100.764 29 101.214 28.76 101.634 28.46L103.164 30.95C102.504 31.37 101.774 31.71 100.974 31.97C100.194 32.21 99.4435 32.33 98.7235 32.33ZM112.74 32.54C111.58 32.54 110.62 32.19 109.86 31.49C109.1 30.77 108.7 29.85 108.66 28.73V19.31H112.02V27.53C112.06 28.15 112.24 28.66 112.56 29.06C112.88 29.46 113.39 29.66 114.09 29.66C114.75 29.66 115.34 29.46 115.86 29.06C116.38 28.64 116.78 28.07 117.06 27.35C117.36 26.63 117.51 25.82 117.51 24.92V19.31H120.87V32H117.84L117.57 29.21L117.66 29.66C117.4 30.2 117.03 30.7 116.55 31.16C116.07 31.6 115.5 31.94 114.84 32.18C114.2 32.42 113.5 32.54 112.74 32.54ZM128.535 19.31L128.835 21.89L128.715 21.68C129.195 20.76 129.845 20.04 130.665 19.52C131.505 19 132.475 18.74 133.575 18.74C134.275 18.74 134.895 18.85 135.435 19.07C135.975 19.29 136.425 19.6 136.785 20C137.165 20.4 137.415 20.9 137.535 21.5L137.355 21.56C137.875 20.7 138.545 20.02 139.365 19.52C140.185 19 141.055 18.74 141.975 18.74C143.215 18.74 144.205 19.1 144.945 19.82C145.685 20.52 146.065 21.43 146.085 22.55V32H142.755V23.87C142.735 23.25 142.605 22.74 142.365 22.34C142.125 21.92 141.675 21.69 141.015 21.65C140.295 21.65 139.675 21.88 139.155 22.34C138.635 22.78 138.225 23.36 137.925 24.08C137.645 24.78 137.505 25.53 137.505 26.33V32H134.115V23.87C134.095 23.25 133.955 22.74 133.695 22.34C133.435 21.92 132.975 21.69 132.315 21.65C131.615 21.65 131.005 21.88 130.485 22.34C129.965 22.78 129.565 23.36 129.285 24.08C129.005 24.78 128.865 25.52 128.865 26.3V32H125.505V19.31H128.535ZM123.108 59.52C123.108 58.24 123.408 57.09 124.008 56.07C124.608 55.03 125.448 54.22 126.528 53.64C127.628 53.04 128.868 52.74 130.248 52.74C131.668 52.74 132.898 53.04 133.938 53.64C134.998 54.22 135.818 55.03 136.398 56.07C136.978 57.09 137.268 58.24 137.268 59.52C137.268 60.8 136.978 61.96 136.398 63C135.818 64.02 134.998 64.83 133.938 65.43C132.898 66.03 131.658 66.33 130.218 66.33C128.858 66.33 127.638 66.06 126.558 65.52C125.478 64.96 124.628 64.17 124.008 63.15C123.408 62.13 123.108 60.92 123.108 59.52ZM126.498 59.55C126.498 60.29 126.658 60.97 126.978 61.59C127.298 62.19 127.738 62.67 128.298 63.03C128.858 63.39 129.478 63.57 130.158 63.57C130.898 63.57 131.538 63.39 132.078 63.03C132.638 62.67 133.068 62.19 133.368 61.59C133.688 60.97 133.848 60.29 133.848 59.55C133.848 58.79 133.688 58.11 133.368 57.51C133.068 56.89 132.638 56.4 132.078 56.04C131.538 55.68 130.898 55.5 130.158 55.5C129.458 55.5 128.828 55.69 128.268 56.07C127.728 56.43 127.298 56.91 126.978 57.51C126.658 58.11 126.498 58.79 126.498 59.55ZM141.908 66V56.25H139.748V53.28H141.908V48.3C141.908 46.54 142.348 45.16 143.228 44.16C144.128 43.14 145.428 42.63 147.128 42.63C147.608 42.63 148.138 42.7 148.718 42.84C149.298 42.98 149.808 43.2 150.248 43.5L148.838 45.93C148.658 45.73 148.448 45.59 148.208 45.51C147.968 45.43 147.728 45.39 147.488 45.39C146.808 45.39 146.268 45.62 145.868 46.08C145.468 46.54 145.268 47.31 145.268 48.39V53.28H149.228V56.25H145.268V66H141.908Z" fill="black"/>
<path d="M164.609 11.9844C166.276 12.0365 167.734 12.0625 168.984 12.0625C170.234 12.0104 171.25 11.9844 172.031 11.9844H174.297C174.87 11.9323 175.573 11.9062 176.406 11.9062C177.135 11.9062 178.021 11.9062 179.062 11.9062C180.104 11.9062 181.302 11.9323 182.656 11.9844C183.073 13.4427 183.542 14.875 184.062 16.2812C184.635 17.6354 185.13 18.8594 185.547 19.9531C186.068 21.2552 186.589 22.4792 187.109 23.625C187.63 24.7708 188.255 26.151 188.984 27.7656C189.609 29.1198 190.365 30.7865 191.25 32.7656C192.135 34.6927 193.177 36.9062 194.375 39.4062C194.948 37.7917 195.469 36.3073 195.938 34.9531C196.458 33.599 196.901 32.4271 197.266 31.4375C197.682 30.2917 198.021 29.25 198.281 28.3125C198.542 27.375 198.828 26.2292 199.141 24.875C199.401 23.7292 199.688 22.349 200 20.7344C200.365 19.1198 200.729 17.2448 201.094 15.1094C202.604 15.1094 203.958 15.1094 205.156 15.1094C206.354 15.1094 207.396 15.0833 208.281 15.0312C209.271 15.0312 210.156 15.0052 210.938 14.9531C211.771 14.9531 212.891 14.901 214.297 14.7969C215.495 14.6927 217.083 14.6146 219.062 14.5625C221.094 14.4583 223.594 14.3281 226.562 14.1719C225.469 14.9531 224.583 15.7344 223.906 16.5156C223.281 17.2448 222.786 17.8958 222.422 18.4688C222.005 19.1458 221.745 19.7969 221.641 20.4219C221.536 20.9427 221.432 22.1406 221.328 24.0156C221.276 25.8906 221.198 28.1302 221.094 30.7344C221.042 33.2865 220.99 36.0208 220.938 38.9375C220.938 41.8542 220.964 44.6146 221.016 47.2188C221.068 49.8229 221.146 52.0885 221.25 54.0156C221.406 55.8906 221.615 57.0885 221.875 57.6094C222.24 58.2344 222.734 58.9635 223.359 59.7969C223.932 60.526 224.661 61.3594 225.547 62.2969C226.484 63.2344 227.708 64.276 229.219 65.4219C226.823 65.526 224.818 65.6042 223.203 65.6562C221.641 65.7083 220.339 65.7604 219.297 65.8125C218.099 65.8646 217.135 65.8906 216.406 65.8906C215.625 65.8906 214.557 65.9167 213.203 65.9688C212.005 66.0208 210.417 66.099 208.438 66.2031C206.458 66.2552 203.906 66.3594 200.781 66.5156C201.51 65.6823 202.188 64.849 202.812 64.0156C203.438 63.1823 203.958 62.4271 204.375 61.75C204.896 60.9688 205.339 60.2135 205.703 59.4844C206.068 58.4948 206.354 56.6979 206.562 54.0938C206.771 51.8542 206.927 48.651 207.031 44.4844C207.135 40.2656 207.135 34.6146 207.031 27.5312C206.042 29.1458 205.156 30.7604 204.375 32.375C203.646 33.9375 202.995 35.3698 202.422 36.6719C201.797 38.1823 201.224 39.6406 200.703 41.0469C200.182 42.5052 199.635 44.1198 199.062 45.8906C198.542 47.401 197.917 49.1979 197.188 51.2812C196.51 53.3646 195.729 55.6562 194.844 58.1562L191.875 58.3125C191.458 56.2292 191.042 54.3542 190.625 52.6875C190.208 50.9688 189.792 49.5104 189.375 48.3125C188.906 46.9062 188.438 45.6562 187.969 44.5625C187.448 43.4688 186.875 42.2448 186.25 40.8906C185.677 39.7448 184.974 38.3906 184.141 36.8281C183.359 35.2656 182.448 33.5208 181.406 31.5938C180.885 36.9062 180.573 41.2292 180.469 44.5625C180.365 47.8438 180.365 50.3958 180.469 52.2188C180.573 54.4062 180.729 55.9948 180.938 56.9844C181.25 57.8698 181.745 58.8594 182.422 59.9531C182.995 60.8906 183.776 62.0104 184.766 63.3125C185.807 64.5625 187.135 65.9688 188.75 67.5312C187.604 67.5312 186.406 67.5312 185.156 67.5312C183.906 67.5312 182.76 67.5573 181.719 67.6094C180.469 67.6615 179.245 67.6875 178.047 67.6875C176.797 67.7396 175.339 67.8177 173.672 67.9219C172.214 68.026 170.469 68.1302 168.438 68.2344C166.406 68.3385 164.062 68.5208 161.406 68.7812C162.552 68.0521 163.49 67.349 164.219 66.6719C164.948 65.9427 165.521 65.2917 165.938 64.7188C166.458 64.0417 166.849 63.3646 167.109 62.6875C167.266 62.2708 167.396 61.3594 167.5 59.9531C167.656 58.5469 167.786 56.8281 167.891 54.7969C168.047 52.7656 168.151 50.5 168.203 48C168.307 45.5 168.385 42.974 168.438 40.4219C168.542 37.8177 168.62 35.2917 168.672 32.8438C168.724 30.3438 168.75 28.1042 168.75 26.125C168.802 24.0938 168.828 22.401 168.828 21.0469C168.828 19.6927 168.828 18.8333 168.828 18.4688C168.672 17.6875 168.438 16.9062 168.125 16.125C167.865 15.4479 167.448 14.7448 166.875 14.0156C166.302 13.2865 165.547 12.6094 164.609 11.9844ZM224.844 14.6406C228.49 14.7448 231.51 14.8229 233.906 14.875C236.354 14.875 238.333 14.875 239.844 14.875H243.984H267.266C267.37 15.9167 267.448 16.9323 267.5 17.9219C267.604 18.8594 267.656 19.6927 267.656 20.4219C267.656 21.3073 267.63 22.1146 267.578 22.8438C267.526 23.5729 267.448 24.3542 267.344 25.1875C267.24 25.9167 267.135 26.6979 267.031 27.5312C266.927 28.3646 266.745 29.224 266.484 30.1094C265.755 27.2969 264.766 25.1615 263.516 23.7031C262.318 22.2448 261.094 21.1771 259.844 20.5C258.385 19.7188 256.849 19.3021 255.234 19.25C253.099 19.3542 251.432 19.5365 250.234 19.7969C249.036 20.0573 248.099 20.4219 247.422 20.8906C246.745 21.3594 246.224 21.9062 245.859 22.5312C245.547 23.1042 245.208 23.7552 244.844 24.4844C244.531 25.1094 244.245 26.0729 243.984 27.375C243.724 28.4688 243.464 29.9531 243.203 31.8281C242.995 33.7031 242.76 36.125 242.5 39.0938C243.906 38.6771 245.026 38.2865 245.859 37.9219C246.745 37.5573 247.448 37.2448 247.969 36.9844C248.542 36.6719 248.958 36.3854 249.219 36.125C249.427 35.8125 249.74 35.2396 250.156 34.4062C250.469 33.6771 250.885 32.6875 251.406 31.4375C251.979 30.1875 252.656 28.4688 253.438 26.2812C253.542 28.6771 253.594 30.6823 253.594 32.2969C253.594 33.8594 253.62 35.1354 253.672 36.125C253.672 37.2708 253.698 38.1823 253.75 38.8594V41.8281C253.75 42.9219 253.75 44.4062 253.75 46.2812C253.802 48.1042 253.88 50.4219 253.984 53.2344C253.359 51.3073 252.786 49.7969 252.266 48.7031C251.797 47.5573 251.38 46.6979 251.016 46.125C250.599 45.4479 250.234 44.9792 249.922 44.7188C249.557 44.6146 249.062 44.5104 248.438 44.4062C247.865 44.3542 247.135 44.3281 246.25 44.3281C245.417 44.3281 244.349 44.4583 243.047 44.7188C242.891 47.5833 242.865 49.901 242.969 51.6719C243.125 53.3906 243.333 54.7188 243.594 55.6562C243.854 56.75 244.167 57.5312 244.531 58C245 58.4688 245.938 58.8594 247.344 59.1719C248.75 59.4323 250.339 59.5365 252.109 59.4844C253.932 59.3802 255.781 59.0677 257.656 58.5469C259.531 58.026 261.198 57.1667 262.656 55.9688C263.75 54.9792 264.922 53.7292 266.172 52.2188C267.214 50.9167 268.359 49.276 269.609 47.2969C270.911 45.3177 272.188 42.9219 273.438 40.1094C273.229 42.4531 273.073 44.4062 272.969 45.9688C272.917 47.4792 272.839 48.7031 272.734 49.6406C272.63 50.7344 272.552 51.5677 272.5 52.1406C272.5 52.7656 272.422 53.651 272.266 54.7969C272.161 55.7865 271.979 57.1406 271.719 58.8594C271.51 60.526 271.224 62.6615 270.859 65.2656C268.411 65.3177 266.094 65.3698 263.906 65.4219C261.719 65.4219 259.792 65.4479 258.125 65.5C256.146 65.5521 254.323 65.6042 252.656 65.6562C250.938 65.6562 249.036 65.7344 246.953 65.8906C245.13 65.9948 242.969 66.151 240.469 66.3594C238.021 66.5677 235.312 66.8542 232.344 67.2188C232.604 63.6771 232.786 60.3438 232.891 57.2188C233.047 54.0417 233.151 51.2552 233.203 48.8594C233.255 46.0469 233.255 43.4427 233.203 41.0469C233.464 35.0573 233.359 30.2135 232.891 26.5156C232.422 22.8177 231.875 20.4479 231.25 19.4062C230.938 19.0417 230.495 18.599 229.922 18.0781C229.453 17.6615 228.802 17.1667 227.969 16.5938C227.135 16.0208 226.094 15.3698 224.844 14.6406Z" fill="black"/>
</svg>
